HIERARCHY
ROOT Hips
{
	OFFSET	0.00	0.00	0.00
	CHANNELS 6 Xposition Yposition Zposition Zrotation Xrotation Yrotation
	JOINT LeftUpLeg
	{
		OFFSET	 0.126116	-0.014019	-0.065224
		CHANNELS 3 Zrotation Xrotation Yrotation
		JOINT LeftLeg
		{
			OFFSET	 0.000000	 0.000000	 0.569914
			CHANNELS 3 Zrotation Xrotation Yrotation
			JOINT LeftFoot
			{
				OFFSET	 0.000000	 0.000000	 0.544423
				CHANNELS 3 Zrotation Xrotation Yrotation
				JOINT LeftToeBase
				{
					OFFSET	 0.000000	 0.000000	 0.207117
					CHANNELS 3 Zrotation Xrotation Yrotation
					End Site
					{
						OFFSET	 0.000000	 0.000000	 0.207117
					}
				}
			}
		}
	}
	JOINT RightUpLeg
	{
		OFFSET	-0.124023	-0.008373	-0.065224
		CHANNELS 3 Zrotation Xrotation Yrotation
		JOINT RightLeg
		{
			OFFSET	 0.000000	 0.000000	 0.570047
			CHANNELS 3 Zrotation Xrotation Yrotation
			JOINT RightFoot
			{
				OFFSET	 0.000000	 0.000000	 0.544354
				CHANNELS 3 Zrotation Xrotation Yrotation
				JOINT RightToeBase
				{
					OFFSET	 0.000000	 0.000000	 0.207540
					CHANNELS 3 Zrotation Xrotation Yrotation
					End Site
					{
						OFFSET	 0.000000	 0.000000	 0.207540
					}
				}
			}
		}
	}
	JOINT Spine
	{
		OFFSET	 0.000184	-0.007763	 0.117403
		CHANNELS 3 Zrotation Xrotation Yrotation
		JOINT Spine1
		{
			OFFSET	 0.000000	 0.000000	 0.137269
			CHANNELS 3 Zrotation Xrotation Yrotation
			JOINT Spine2
			{
				OFFSET	 0.000000	 0.000000	 0.156879
				CHANNELS 3 Zrotation Xrotation Yrotation
				JOINT LeftShoulder
				{
					OFFSET	 0.080501	-0.002496	 0.160144
					CHANNELS 3 Zrotation Xrotation Yrotation
					JOINT LeftArm
					{
						OFFSET	 0.000000	 0.000000	 0.164363
						CHANNELS 3 Zrotation Xrotation Yrotation
						JOINT LeftForeArm
						{
							OFFSET	 0.000000	 0.000000	 0.364576
							CHANNELS 3 Zrotation Xrotation Yrotation
							JOINT LeftHand
							{
								OFFSET	 0.000000	 0.000000	 0.360812
								CHANNELS 3 Zrotation Xrotation Yrotation
								JOINT LeftHandIndex1
								{
									OFFSET	 0.000000	 0.000000	 0.086006
									CHANNELS 3 Zrotation Xrotation Yrotation
									JOINT LeftHandIndex2
									{
										OFFSET	 0.000000	 0.000000	 0.047236
										CHANNELS 3 Zrotation Xrotation Yrotation
										JOINT LeftHandIndex3
										{
											OFFSET	-0.004284	-0.000551	 0.038166
											CHANNELS 3 Zrotation Xrotation Yrotation
											End Site
											{
												OFFSET	-0.004284	-0.000551	 0.038166
											}
										}
									}
								}
							}
						}
					}
				}
				JOINT Neck
				{
					OFFSET	 0.000000	 0.000000	 0.176489
					CHANNELS 3 Zrotation Xrotation Yrotation
					JOINT Head
					{
						OFFSET	 0.000000	-0.001747	 0.077940
						CHANNELS 3 Zrotation Xrotation Yrotation
						End Site
						{
							OFFSET	 0.000000	-0.001747	 0.077940
						}
					}
				}
				JOINT RightShoulder
				{
					OFFSET	-0.080363	 0.000306	 0.159706
					CHANNELS 3 Zrotation Xrotation Yrotation
					JOINT RightArm
					{
						OFFSET	 0.000000	 0.000000	 0.164196
						CHANNELS 3 Zrotation Xrotation Yrotation
						JOINT RightForeArm
						{
							OFFSET	 0.000000	 0.000000	 0.365611
							CHANNELS 3 Zrotation Xrotation Yrotation
							JOINT RightHand
							{
								OFFSET	 0.000000	 0.000000	 0.360648
								CHANNELS 3 Zrotation Xrotation Yrotation
								JOINT RightHandIndex1
								{
									OFFSET	 0.000000	 0.000000	 0.069977
									CHANNELS 3 Zrotation Xrotation Yrotation
									JOINT RightHandIndex2
									{
										OFFSET	 0.000000	 0.000000	 0.052305
										CHANNELS 3 Zrotation Xrotation Yrotation
										JOINT RightHandIndex3
										{
											OFFSET	 0.009002	-0.000782	 0.042196
											CHANNELS 3 Zrotation Xrotation Yrotation
											End Site
											{
												OFFSET	 0.009002	-0.000782	 0.042196
											}
										}
									}
								}
							}
						}
					}
				}
			}
		}
	}
}
MOTION
Frames:    12
Frame Time: 0.03333334
 6.910434	 5.872581	 0.429577	 169.733800	-0.000008	-0.000005	 4.117190	-1.743456	 179.873500	 3.144682	-11.594540	 1.749894	 4.431011	 71.402240	 1.145402	-2.385833	 28.452760	 0.000004	-4.119452	-2.154259	-179.893100	-3.138409	-11.963990	-1.790670	-4.423576	 71.426400	-1.178366	 2.384659	 28.388700	-0.000001	-5.089113	 2.834256	 0.047560	-8.469393	-1.523366	-0.673262	-10.166070	-1.815163	-0.834580	-91.776180	 78.527400	-180.000000	 12.108080	-5.220968	-1.016091	-4.393904	-0.888975	-0.368780	-17.758410	 5.509590	-4.087454	-3.812334	 37.924440	-2.927599	-2.450526	 36.184240	 0.754587	-1.378229	 35.397820	-2.634230	 0.000023	-3.783169	-0.089619	-2.513164	 1.030218	 0.022601	 89.782120	 78.203870	 180.000000	-12.512960	-5.961348	 1.072667	 4.635255	-0.427214	 0.526699	 17.654990	 4.343249	 8.300239	 6.437017	 35.671460	-0.771858	 2.830251	 35.756010	-7.813440	-2.350882	 35.473990	 5.254307
 6.894254	 5.868338	 0.421385	-98.990430	 4.066946	-0.986483	 9.560172	 17.886940	-176.278500	-5.846025	-11.624660	 1.534649	-12.763040	 89.087210	 16.209500	-2.282570	 41.305550	-0.311194	 4.385517	-45.790130	-179.949600	-0.371097	-42.589480	 3.506116	-176.567100	 84.175870	-178.853300	 2.394909	 25.695900	-0.057264	-7.252015	 2.555730	 2.799835	-11.326750	-4.142376	 0.330516	-13.168220	-7.463365	-2.408203	-91.776180	 78.527400	 180.000000	 42.189330	 62.174760	-57.472280	-6.522670	-4.570767	-27.023240	 5.515754	 3.592763	-5.370996	-3.812334	 37.924440	-2.927599	-2.450526	 36.184240	 0.754587	-1.378229	 35.397820	-2.634230	-0.234459	 4.963333	-2.317647	-3.368441	-23.417370	-4.111950	 89.782090	 78.203890	-180.000000	-30.553910	 73.105650	 34.203120	 3.930980	-6.494814	 19.836330	-15.300610	 2.369552	 9.532737	 6.437017	 35.671460	-0.771858	 2.830251	 35.756010	-7.813440	-2.350882	 35.473990	 5.254307
 6.837797	 5.877539	 0.419999	-97.909810	 4.317870	-1.336917	 8.884066	 20.134550	-176.645500	-5.038288	-11.622820	 1.549131	 0.166075	 88.067600	 3.365778	-2.233616	 44.809650	-0.413011	 5.070625	-45.088810	-178.875000	 0.481487	-42.289790	 4.351758	-175.552400	 86.298520	-179.015300	 2.375990	 30.175300	 0.039131	-7.679662	 2.282723	 2.568579	-11.608620	-4.264584	 0.066393	-13.296440	-7.405582	-2.503638	-91.776180	 78.527400	-180.000000	 44.079440	 63.143810	-59.198340	-6.369581	-4.467367	-24.446690	 6.203888	 3.566775	-5.362651	-3.812334	 37.924440	-2.927599	-2.450526	 36.184240	 0.754587	-1.378229	 35.397820	-2.634230	-0.464196	 5.189864	-2.269587	-3.542149	-23.667840	-4.059475	 89.782090	 78.203830	-180.000000	-29.057610	 73.754480	 31.930760	 4.090941	-6.301454	 18.942340	-15.665740	 2.355463	 9.520560	 6.437017	 35.671460	-0.771858	 2.830251	 35.756010	-7.813440	-2.350882	 35.473990	 5.254307
 6.810489	 5.882496	 0.418424	-97.510860	 4.455853	-1.440153	 8.658305	 21.182280	-176.967700	-4.613226	-11.620250	 1.568412	 2.872649	 87.090680	 0.787041	-2.199983	 46.821410	-0.476384	 5.308346	-44.540690	-178.511700	 1.078894	-42.925420	 4.950662	-175.377400	 87.424350	-178.746900	 2.380786	 29.226560	 0.018226	-7.913119	 2.117625	 2.382479	-11.718930	-4.364094	-0.076534	-13.312580	-7.398868	-2.551977	-91.776180	 78.527400	-180.000000	 44.745070	 63.862830	-59.556530	-6.529411	-4.389522	-23.270160	 6.523239	 3.550712	-5.357041	-3.812334	 37.924440	-2.927599	-2.450526	 36.184240	 0.754587	-1.378229	 35.397820	-2.634230	-0.563814	 5.086287	-2.222796	-3.596385	-23.525590	-3.946121	 89.782140	 78.203830	 180.000000	-28.257150	 74.081200	 30.814000	 4.274679	-6.218476	 18.628460	-15.819490	 2.349230	 9.514506	 6.437017	 35.671460	-0.771858	 2.830251	 35.756010	-7.813440	-2.350882	 35.473990	 5.254307
 6.755931	 5.893134	 0.418618	-96.955380	 4.476154	-1.448542	 8.451540	 23.168950	-177.909600	-3.717847	-11.611430	 1.633217	 4.862134	 83.850150	-0.732323	-2.117176	 50.876780	-0.617916	 4.822979	-43.308440	-178.766600	 4.367604	-44.780090	 7.305265	 6.937169	 89.255330	 0.697034	 2.373948	 30.553720	 0.047556	-8.387318	 1.839314	 1.707240	-11.836420	-4.628127	-0.347502	-13.224920	-7.516530	-2.643638	-91.776170	 78.527420	-180.000000	 45.329490	 65.703130	-58.992500	-7.219131	-4.211129	-21.188410	 7.125184	 3.516502	-5.344129	-3.812334	 37.924440	-2.927599	-2.450526	 36.184240	 0.754587	-1.378229	 35.397820	-2.634230	-0.753086	 4.843295	-2.091410	-3.689249	-23.099720	-3.647766	 89.782120	 78.203870	 180.000000	-26.470830	 74.666100	 28.356150	 4.751772	-6.050072	 18.176120	-16.035400	 2.341162	 9.506047	 6.437017	 35.671460	-0.771858	 2.830251	 35.756010	-7.813440	-2.350882	 35.473990	 5.254307
 6.705237	 5.903390	 0.421452	-96.757430	 4.376733	-1.317854	 8.597035	 24.909820	-178.853000	-3.171482	-11.602430	 1.696400	 4.971854	 78.993640	-0.234778	-2.060746	 53.126180	-0.706289	 3.931047	-42.103660	-179.436300	 6.503312	-46.447250	 8.692241	 5.052062	 86.899220	 3.326082	 2.371701	 30.957160	 0.056576	-8.615354	 1.456270	 0.992534	-11.715550	-4.856069	-0.614920	-13.215880	-7.670486	-2.568884	-91.776180	 78.527380	-180.000000	 44.936690	 67.722860	-57.214680	-8.402200	-3.997631	-19.689910	 7.486448	 3.488935	-5.332839	-3.812334	 37.924440	-2.927599	-2.450526	 36.184240	 0.754587	-1.378229	 35.397820	-2.634230	-0.917459	 4.770472	-1.943288	-3.740268	-22.849140	-3.299586	 89.782070	 78.203930	-180.000000	-24.929660	 75.086910	 26.242120	 5.251865	-5.891599	 17.928520	-16.145890	 2.338351	 9.502076	 6.437017	 35.671460	-0.771858	 2.830251	 35.756010	-7.813440	-2.350882	 35.473990	 5.254307
 6.653415	 5.914807	 0.426019	-96.665680	 4.309932	-1.356644	 8.910603	 26.479580	-179.592200	-3.271699	-11.604360	 1.682793	 4.081689	 72.068480	 1.123018	-2.069335	 52.805000	-0.693158	 3.533419	-40.719490	 179.976400	 6.190341	-47.898060	 8.519563	 5.083800	 85.784670	 2.647868	 2.376400	 30.096880	 0.037393	-8.662024	 0.727302	 0.635383	-11.442940	-4.993789	-0.792689	-13.290080	-7.635407	-2.359382	-91.776180	 78.527400	-180.000000	 43.517170	 69.767320	-54.052890	-10.001220	-3.722044	-18.725730	 7.490771	 3.471217	-5.326293	-3.812334	 37.924440	-2.927599	-2.450526	 36.184240	 0.754587	-1.378229	 35.397820	-2.634230	-0.974143	 4.710922	-1.873712	-3.723940	-22.472400	-3.025840	 89.782100	 78.203870	-180.000000	-24.234910	 75.374070	 25.254460	 5.680509	-5.751017	 17.819600	-16.254240	 2.335355	 9.497195	 6.437017	 35.671460	-0.771858	 2.830251	 35.756010	-7.813440	-2.350882	 35.473990	 5.254307
 6.596685	 5.927619	 0.432642	-96.474590	 4.192989	-1.438502	 9.168751	 28.049570	 179.552100	-3.972014	-11.626700	 1.518195	 3.832531	 62.465000	 1.181830	-2.074404	 52.611700	-0.685360	 3.188617	-38.222650	 179.449300	 5.807349	-48.860780	 8.228392	 4.931932	 85.717290	 2.268548	 2.388517	 27.472440	-0.019701	-8.865975	 0.307019	 0.484858	-11.210130	-4.989425	-0.925027	-13.121580	-7.294960	-2.204974	-91.776180	 78.527400	-180.000000	 40.847650	 71.461120	-48.861290	-11.642840	-3.380734	-18.450770	 7.053102	 3.466375	-5.326658	-3.812334	 37.924440	-2.927599	-2.450526	 36.184240	 0.754587	-1.378229	 35.397820	-2.634230	-0.960789	 4.651469	-1.861041	-3.679565	-21.599330	-2.772218	 89.782120	 78.203870	 180.000000	-24.113130	 75.479390	 24.919070	 6.031884	-5.613559	 17.875100	-16.335650	 2.336138	 9.494223	 6.437017	 35.671460	-0.771858	 2.830251	 35.756010	-7.813440	-2.350882	 35.473990	 5.254307
 6.542211	 5.944592	 0.443716	-95.969000	 3.240919	-1.182104	 6.895050	 20.318130	 177.763900	-3.076997	-29.662330	 0.722376	 1.714526	 57.620410	 0.475689	-2.152604	 49.271330	-0.559426	 2.368390	-34.177460	 178.526700	 5.844644	-49.051430	 7.827359	 5.451182	 87.230130	 1.416323	 2.398071	 24.634920	-0.079326	-9.550553	 0.844056	 0.136086	-11.205810	-4.817831	-1.093646	-12.626640	-6.778214	-2.252192	-91.776180	 78.527400	-180.000000	 37.599590	 72.100770	-42.654050	-12.450140	-3.069301	-18.840190	 6.568197	 3.472868	-5.330342	-3.812334	 37.924440	-2.927599	-2.450526	 36.184240	 0.754587	-1.378229	 35.397820	-2.634230	-1.036973	 4.587899	-1.760684	-3.744377	-20.206940	-2.691195	 89.782090	 78.203830	-180.000000	-24.631670	 75.286090	 25.232340	 6.552347	-5.507174	 18.641360	-16.081180	 2.351416	 9.503660	 6.437017	 35.671460	-0.771858	 2.830251	 35.756010	-7.813440	-2.350882	 35.473990	 5.254307
 6.494563	 5.960400	 0.452262	-94.969080	 2.284480	 0.253070	 7.056348	 13.063350	 173.953400	-1.935027	-44.766710	 0.269584	 1.347181	 52.115030	 0.889948	-2.283836	 41.203210	-0.308367	 1.160333	-29.706650	 176.563300	 6.290324	-47.995760	 7.220378	 6.449467	 89.017620	 0.247407	 2.400567	 23.660170	-0.099381	-10.532190	 1.629029	-1.289310	-11.384240	-4.520461	-1.529873	-12.552460	-6.679190	-2.356032	-91.776180	 78.527400	-180.000000	 36.056970	 71.904130	-39.411050	-12.315130	-2.963311	-19.551480	 6.659136	 3.487376	-5.332693	-3.812334	 37.924440	-2.927599	-2.450526	 36.184240	 0.754587	-1.378229	 35.397820	-2.634230	-1.300526	 4.556760	-1.555963	-3.969838	-19.267070	-2.905238	 89.782100	 78.203850	-180.000000	-26.503270	 74.826280	 27.410300	 7.105601	-5.443841	 19.991720	-15.610820	 2.375420	 9.520112	 6.437017	 35.671460	-0.771858	 2.830251	 35.756010	-7.813440	-2.350882	 35.473990	 5.254307
 6.448181	 5.975565	 0.458414	-93.811460	 1.665388	 2.253437	 6.637838	 6.552348	 170.330400	-1.343948	-56.418900	-0.724670	 0.562634	 50.443170	 1.360510	-2.312085	 38.710890	-0.241592	 0.089467	-25.254530	 174.059800	 6.550908	-46.117490	 6.296771	-174.056800	 89.627800	-179.555000	 2.402569	 22.733410	-0.118272	-11.548930	 2.215738	-3.364421	-11.546770	-4.343974	-2.061768	-12.784810	-6.967075	-2.417874	-91.776180	 78.527400	-180.000000	 35.098950	 71.411070	-37.460730	-12.087000	-2.910651	-20.665800	 6.886288	 3.514147	-5.337438	-3.812334	 37.924440	-2.927599	-2.450526	 36.184240	 0.754587	-1.378229	 35.397820	-2.634230	-1.685741	 4.648367	-1.312194	-4.303030	-18.833380	-3.297817	 89.782140	 78.203830	 180.000000	-28.693890	 74.050850	 30.221620	 7.612415	-5.383232	 21.754160	-15.088310	 2.407795	 9.540339	 6.437017	 35.671460	-0.771858	 2.830251	 35.756010	-7.813440	-2.350882	 35.473990	 5.254307
 6.399364	 5.990448	 0.462171	-92.710630	 1.133374	 3.530928	 5.171985	-0.041334	 168.425200	 1.123569	-66.025620	-0.177234	 1.375443	 54.819680	 0.643480	-2.291831	 40.538960	-0.290178	-0.510347	-20.914360	 172.542600	 6.432268	-44.017160	 5.316250	-174.166300	 88.379970	-179.855200	 2.404384	 21.715120	-0.138844	-12.386260	 2.599569	-4.660923	-11.623320	-4.169020	-2.347907	-13.195040	-7.170353	-2.354010	-91.776180	 78.527400	 180.000000	 33.811050	 70.855090	-35.628780	-12.600930	-2.694488	-22.461140	 6.702066	 3.554448	-5.348403	-3.812334	 37.924440	-2.927599	-2.450526	 36.184240	 0.754587	-1.378229	 35.397820	-2.634230	-2.164288	 4.803620	-0.958626	-4.718843	-18.637860	-3.956834	 89.782110	 78.203930	 180.000000	-30.932850	 72.852330	 33.438780	 8.203663	-5.226447	 24.007950	-14.409000	 2.445029	 9.562285	 6.437017	 35.671460	-0.771858	 2.830251	 35.756010	-7.813440	-2.350882	 35.473990	 5.254307
